<svg width="18" height="17" viewBox="0 0 18 17" fill="none" xmlns="http://www.w3.org/2000/svg">
<path d="M9.02489 11.8688C8.85288 11.8679 8.68322 11.8288 8.52822 11.7542C8.37323 11.6796 8.23677 11.5715 8.12877 11.4376L5.29217 8.00133C5.12642 7.79446 5.02211 7.54518 4.99114 7.28192C4.96016 7.01865 5.00377 6.75197 5.11699 6.51228C5.20881 6.30397 5.35865 6.12649 5.54862 6.00104C5.73859 5.87559 5.96065 5.80747 6.18829 5.80482H11.8615C12.0891 5.80747 12.3112 5.87559 12.5012 6.00104C12.6911 6.12649 12.841 6.30397 12.9328 6.51228C13.046 6.75197 13.0896 7.01865 13.0586 7.28192C13.0277 7.54518 12.9234 7.79446 12.7576 8.00133L9.92101 11.4376C9.81301 11.5715 9.67656 11.6796 9.52156 11.7542C9.36656 11.8288 9.1969 11.8679 9.02489 11.8688Z" fill="#1D1D1B"/>
</svg>
